<?xml version="1.0" standalone="no"?>
<!DOCTYPE svg PUBLIC "-//W3C//DTD SVG 20010904//EN"
 "http://www.w3.org/TR/2001/REC-SVG-20010904/DTD/svg10.dtd">
<svg version="1.0" xmlns="http://www.w3.org/2000/svg"
 width="1024.000000pt" height="1024.000000pt" viewBox="0 0 1024.000000 1024.000000"
 preserveAspectRatio="xMidYMid meet">

<g transform="translate(0.000000,1024.000000) scale(0.100000,-0.100000)"
fill="#000000" stroke="none">
<path d="M3211 8331 c-1042 -372 -1896 -681 -1898 -687 -6 -17 575 -5026 584
-5035 4 -4 732 -409 1617 -898 l1608 -891 1612 892 c886 490 1613 893 1615
895 5 3 581 4986 581 5023 0 24 -25 34 -653 257 -358 128 -1214 433 -1901 678
-686 245 -1253 444 -1260 444 -6 -1 -863 -306 -1905 -678z m3097 -2894 c650
-1464 1182 -2665 1182 -2669 0 -5 -199 -8 -442 -8 l-443 0 -239 600 -240 600
-1010 -2 -1011 -3 -239 -597 -240 -598 -444 0 c-419 0 -444 1 -438 18 19 51
2372 5322 2376 5322 3 -1 537 -1199 1188 -2663z"/>
<path d="M4775 5538 c-185 -447 -340 -818 -342 -825 -4 -10 135 -13 687 -13
583 0 691 2 687 14 -53 136 -682 1636 -687 1636 -4 0 -159 -366 -345 -812z"/>
</g>
</svg>
