<svg version="1.1" id="Layer_1" xmlns="http://www.w3.org/2000/svg" xmlns:xlink="http://www.w3.org/1999/xlink" x="0px" y="0px"
	 width="100%" viewBox="0 0 1024 1024" enable-background="new 0 0 1024 1024" xml:space="preserve">
<path fill="#000000" opacity="1.000000" stroke="none" 
	d="
M569.000000,1025.000000 
	C379.333344,1025.000000 190.166672,1025.000000 1.000000,1025.000000 
	C1.000000,683.666687 1.000000,342.333344 1.000000,1.000000 
	C342.333344,1.000000 683.666687,1.000000 1025.000000,1.000000 
	C1025.000000,342.333344 1025.000000,683.666687 1025.000000,1025.000000 
	C873.166687,1025.000000 721.333313,1025.000000 569.000000,1025.000000 
M513.717957,123.328606 
	C506.559723,125.855537 499.398773,128.374817 492.243683,130.910629 
	C448.850128,146.289673 405.444580,161.635025 362.070496,177.068817 
	C338.071808,185.608246 314.142456,194.342407 290.153534,202.909546 
	C252.648575,216.303650 215.126221,229.649200 177.597565,242.976868 
	C162.093964,248.482727 146.555008,253.889053 130.960968,259.365631 
	C131.678146,264.816833 132.431015,269.815674 132.977814,274.836945 
	C134.382370,287.735046 135.562836,300.658661 137.079163,313.543091 
	C138.917618,329.164703 141.077530,344.748291 142.970795,360.363770 
	C144.727600,374.853394 146.315536,389.363525 147.979568,403.864410 
	C149.980652,421.302521 151.970062,438.742004 153.989929,456.177948 
	C155.632614,470.357910 157.329590,484.531616 158.972031,498.711609 
	C160.992889,516.158447 162.976257,533.609680 164.986710,551.057739 
	C166.978180,568.341125 168.995148,585.621643 170.978577,602.906006 
	C172.662903,617.583740 174.293839,632.267700 175.987137,646.944397 
	C178.301041,667.000122 180.706009,687.045532 182.970612,707.106689 
	C185.052231,725.546997 186.974030,744.005371 189.073196,762.443542 
	C189.192596,763.492432 190.045090,764.849487 190.951996,765.359070 
	C209.216843,775.621155 227.514923,785.824890 245.858978,795.945007 
	C260.063812,803.781555 274.378571,811.419006 288.576630,819.267639 
	C308.919830,830.513306 329.182892,841.903809 349.515320,853.169128 
	C363.548523,860.944214 377.674133,868.552612 391.699707,876.341309 
	C415.321808,889.459045 438.895172,902.664551 462.493073,915.825867 
	C478.919922,924.987549 495.346985,934.148926 511.811554,943.242310 
	C512.377686,943.554993 513.349548,943.133118 514.758362,942.748901 
	C526.261597,936.502319 537.819031,930.353027 549.257202,923.989563 
	C575.177063,909.569458 601.025208,895.020508 626.927856,880.569336 
	C645.239258,870.353271 663.586487,860.201172 681.928040,850.039124 
	C710.036316,834.465759 738.138000,818.880554 766.271790,803.353394 
	C786.490784,792.194519 806.859497,781.301392 826.925171,769.874756 
	C831.461365,767.291626 837.434204,766.434326 837.520874,757.892578 
	C837.657959,744.369202 840.402222,730.874451 842.002258,717.362732 
	C842.775635,710.831726 843.410339,704.284302 844.188232,697.753845 
	C845.428894,687.339233 846.797424,676.939575 847.998657,666.520508 
	C849.146362,656.565674 850.084290,646.586609 851.234436,636.632080 
	C852.420227,626.368408 853.827087,616.130188 854.995911,605.864685 
	C856.129395,595.909851 857.012390,585.926575 858.135315,575.970398 
	C859.348267,565.215332 860.736084,554.480103 862.000610,543.730652 
	C862.787598,537.039978 863.440857,530.333618 864.237305,523.644165 
	C865.458862,513.384644 866.827576,503.142212 867.993347,492.876587 
	C869.124695,482.914062 869.992493,472.921509 871.134460,462.960297 
	C872.329834,452.533508 873.775757,442.135651 874.997070,431.711639 
	C876.125244,422.082916 877.044983,412.429871 878.158691,402.799347 
	C879.383118,392.211548 880.773621,381.643005 882.000061,371.055450 
	C883.134460,361.262024 884.097107,351.448700 885.228149,341.654846 
	C886.432861,331.223938 887.752014,320.806274 889.010498,310.381531 
	C889.875732,303.213959 890.742798,296.046478 891.572693,288.874725 
	C892.700745,279.127014 893.794128,269.375275 894.918945,259.479187 
	C883.429688,255.278046 872.116333,251.078522 860.759277,247.000671 
	C831.977539,236.666290 803.201416,226.315353 774.375916,216.103943 
	C742.770081,204.907654 711.070740,193.974289 679.487488,182.715057 
	C649.475220,172.015854 619.580872,160.985992 589.594177,150.214554 
	C573.265381,144.349121 556.859558,138.697418 540.474243,132.990433 
	C531.695190,129.932724 522.885803,126.962021 513.717957,123.328606 
z"/>
<path fill="#C3002F" opacity="1.000000" stroke="none" 
	d="
M514.090210,123.952057 
	C522.885803,126.962021 531.695190,129.932724 540.474243,132.990433 
	C556.859558,138.697418 573.265381,144.349121 589.594177,150.214554 
	C619.580872,160.985992 649.475220,172.015854 679.487488,182.715057 
	C711.070740,193.974289 742.770081,204.907654 774.375916,216.103943 
	C803.201416,226.315353 831.977539,236.666290 860.759277,247.000671 
	C872.116333,251.078522 883.429688,255.278046 894.918945,259.479187 
	C893.794128,269.375275 892.700745,279.127014 891.572693,288.874725 
	C890.742798,296.046478 889.875732,303.213959 889.010498,310.381531 
	C887.752014,320.806274 886.432861,331.223938 885.228149,341.654846 
	C884.097107,351.448700 883.134460,361.262024 882.000061,371.055450 
	C880.773621,381.643005 879.383118,392.211548 878.158691,402.799347 
	C877.044983,412.429871 876.125244,422.082916 874.997070,431.711639 
	C873.775757,442.135651 872.329834,452.533508 871.134460,462.960297 
	C869.992493,472.921509 869.124695,482.914062 867.993347,492.876587 
	C866.827576,503.142212 865.458862,513.384644 864.237305,523.644165 
	C863.440857,530.333618 862.787598,537.039978 862.000610,543.730652 
	C860.736084,554.480103 859.348267,565.215332 858.135315,575.970398 
	C857.012390,585.926575 856.129395,595.909851 854.995911,605.864685 
	C853.827087,616.130188 852.420227,626.368408 851.234436,636.632080 
	C850.084290,646.586609 849.146362,656.565674 847.998657,666.520508 
	C846.797424,676.939575 845.428894,687.339233 844.188232,697.753845 
	C843.410339,704.284302 842.775635,710.831726 842.002258,717.362732 
	C840.402222,730.874451 837.657959,744.369202 837.520874,757.892578 
	C837.434204,766.434326 831.461365,767.291626 826.925171,769.874756 
	C806.859497,781.301392 786.490784,792.194519 766.271790,803.353394 
	C738.138000,818.880554 710.036316,834.465759 681.928040,850.039124 
	C663.586487,860.201172 645.239258,870.353271 626.927856,880.569336 
	C601.025208,895.020508 575.177063,909.569458 549.257202,923.989563 
	C537.819031,930.353027 526.261597,936.502319 514.181763,942.573120 
	C513.403442,940.266907 513.025818,938.136414 513.025269,936.005859 
	C512.997559,833.807007 513.002380,731.608093 513.463013,629.312256 
	C545.421326,629.204346 576.920837,629.295105 608.418030,629.062439 
	C612.678040,629.031006 614.404724,630.523804 615.879150,634.242432 
	C630.460510,671.017944 645.251892,707.710083 659.854431,744.477295 
	C661.113037,747.646362 662.476807,749.059448 666.210022,749.031128 
	C692.707703,748.830139 719.207703,748.927490 745.706909,748.914612 
	C747.102234,748.913940 748.497437,748.775513 750.326965,748.678040 
	C749.462036,746.617737 748.858398,745.103394 748.196838,743.614746 
	C678.249023,586.228882 608.305420,428.841187 538.333801,271.465912 
	C529.967590,252.649246 521.447327,233.901077 512.999939,214.644897 
	C513.000916,186.174011 512.977356,158.179337 513.047058,130.184891 
	C513.052246,128.106430 513.726807,126.029633 514.090210,123.952057 
z"/>
<path fill="#DD0031" opacity="1.000000" stroke="none" 
	d="
M513.904053,123.640335 
	C513.726807,126.029633 513.052246,128.106430 513.047058,130.184891 
	C512.977356,158.179337 513.000916,186.174011 512.748047,214.880600 
	C433.273895,393.172150 354.052979,570.751709 274.737946,748.542297 
	C275.815796,748.741760 276.275543,748.901123 276.735321,748.901367 
	C304.567657,748.917297 332.400330,748.855774 360.231781,749.014221 
	C363.350281,749.031921 364.102509,747.431213 365.005310,745.174255 
	C379.945862,707.822815 394.965698,670.503052 409.818115,633.116638 
	C410.984741,630.179993 412.313141,629.009521 415.529663,629.106628 
	C423.355591,629.342712 431.193512,629.165466 439.026520,629.186584 
	C463.685547,629.252930 488.344574,629.333862 513.003601,629.409241 
	C513.002380,731.608093 512.997559,833.807007 513.025269,936.005859 
	C513.025818,938.136414 513.403442,940.266907 513.868774,942.725525 
	C513.349548,943.133118 512.377686,943.554993 511.811554,943.242310 
	C495.346985,934.148926 478.919922,924.987549 462.493073,915.825867 
	C438.895172,902.664551 415.321808,889.459045 391.699707,876.341309 
	C377.674133,868.552612 363.548523,860.944214 349.515320,853.169128 
	C329.182892,841.903809 308.919830,830.513306 288.576630,819.267639 
	C274.378571,811.419006 260.063812,803.781555 245.858978,795.945007 
	C227.514923,785.824890 209.216843,775.621155 190.951996,765.359070 
	C190.045090,764.849487 189.192596,763.492432 189.073196,762.443542 
	C186.974030,744.005371 185.052231,725.546997 182.970612,707.106689 
	C180.706009,687.045532 178.301041,667.000122 175.987137,646.944397 
	C174.293839,632.267700 172.662903,617.583740 170.978577,602.906006 
	C168.995148,585.621643 166.978180,568.341125 164.986710,551.057739 
	C162.976257,533.609680 160.992889,516.158447 158.972031,498.711609 
	C157.329590,484.531616 155.632614,470.357910 153.989929,456.177948 
	C151.970062,438.742004 149.980652,421.302521 147.979568,403.864410 
	C146.315536,389.363525 144.727600,374.853394 142.970795,360.363770 
	C141.077530,344.748291 138.917618,329.164703 137.079163,313.543091 
	C135.562836,300.658661 134.382370,287.735046 132.977814,274.836945 
	C132.431015,269.815674 131.678146,264.816833 130.960968,259.365631 
	C146.555008,253.889053 162.093964,248.482727 177.597565,242.976868 
	C215.126221,229.649200 252.648575,216.303650 290.153534,202.909546 
	C314.142456,194.342407 338.071808,185.608246 362.070496,177.068817 
	C405.444580,161.635025 448.850128,146.289673 492.243683,130.910629 
	C499.398773,128.374817 506.559723,125.855537 513.904053,123.640335 
z"/>
<path fill="#FFFEFE" opacity="1.000000" stroke="none" 
	d="
M513.463013,629.312256 
	C488.344574,629.333862 463.685547,629.252930 439.026520,629.186584 
	C431.193512,629.165466 423.355591,629.342712 415.529663,629.106628 
	C412.313141,629.009521 410.984741,630.179993 409.818115,633.116638 
	C394.965698,670.503052 379.945862,707.822815 365.005310,745.174255 
	C364.102509,747.431213 363.350281,749.031921 360.231781,749.014221 
	C332.400330,748.855774 304.567657,748.917297 276.735321,748.901367 
	C276.275543,748.901123 275.815796,748.741760 274.737946,748.542297 
	C354.052979,570.751709 433.273895,393.172150 512.746704,215.356842 
	C521.447327,233.901077 529.967590,252.649246 538.333801,271.465912 
	C608.305420,428.841187 678.249023,586.228882 748.196838,743.614746 
	C748.858398,745.103394 749.462036,746.617737 750.326965,748.678040 
	C748.497437,748.775513 747.102234,748.913940 745.706909,748.914612 
	C719.207703,748.927490 692.707703,748.830139 666.210022,749.031128 
	C662.476807,749.059448 661.113037,747.646362 659.854431,744.477295 
	C645.251892,707.710083 630.460510,671.017944 615.879150,634.242432 
	C614.404724,630.523804 612.678040,629.031006 608.418030,629.062439 
	C576.920837,629.295105 545.421326,629.204346 513.463013,629.312256 
M513.464600,389.463684 
	C512.607971,390.697876 511.496704,391.825897 510.931458,393.181580 
	C489.078247,445.594604 467.273071,498.027649 445.474213,550.463318 
	C444.866455,551.925232 444.396545,553.444458 443.633881,555.575195 
	C449.716888,555.575195 455.159943,555.602356 460.602661,555.570129 
	C478.066681,555.466919 495.530579,555.341858 513.894897,555.502258 
	C536.587463,555.502258 559.279968,555.502258 582.611084,555.502258 
	C576.504211,540.817810 570.780884,527.030762 565.038269,513.251709 
	C547.920349,472.178680 530.794861,431.108826 513.464600,389.463684 
z"/>
<path fill="#DD0434" opacity="1.000000" stroke="none" 
	d="
M512.994507,555.225220 
	C495.530579,555.341858 478.066681,555.466919 460.602661,555.570129 
	C455.159943,555.602356 449.716888,555.575195 443.633881,555.575195 
	C444.396545,553.444458 444.866455,551.925232 445.474213,550.463318 
	C467.273071,498.027649 489.078247,445.594604 510.931458,393.181580 
	C511.496704,391.825897 512.607971,390.697876 513.399536,390.121765 
	C513.222168,392.934784 513.012573,395.089691 513.011780,397.244629 
	C512.992554,449.904816 512.995544,502.565033 512.994507,555.225220 
z"/>
<path fill="#C30130" opacity="1.000000" stroke="none" 
	d="
M513.444702,555.363770 
	C512.995544,502.565033 512.992554,449.904816 513.011780,397.244629 
	C513.012573,395.089691 513.222168,392.934784 513.503418,390.408783 
	C530.794861,431.108826 547.920349,472.178680 565.038269,513.251709 
	C570.780884,527.030762 576.504211,540.817810 582.611084,555.502258 
	C559.279968,555.502258 536.587463,555.502258 513.444702,555.363770 
z"/>
</svg>