<?xml version="1.0" standalone="no"?>
<!DOCTYPE svg PUBLIC "-//W3C//DTD SVG 20010904//EN"
 "http://www.w3.org/TR/2001/REC-SVG-20010904/DTD/svg10.dtd">
<svg version="1.0" xmlns="http://www.w3.org/2000/svg"
 width="1024.000000pt" height="1024.000000pt" viewBox="0 0 1024.000000 1024.000000"
 preserveAspectRatio="xMidYMid meet">

<g transform="translate(0.000000,1024.000000) scale(0.100000,-0.100000)"
fill="#000000" stroke="none">
<path d="M4845 10230 c-1083 -64 -2087 -447 -2920 -1115 -690 -553 -1237
-1292 -1558 -2105 -268 -679 -382 -1352 -356 -2093 51 -1422 696 -2749 1794
-3691 796 -684 1809 -1108 2870 -1201 211 -19 638 -21 835 -5 700 57 1362 245
1957 555 1202 628 2093 1672 2515 2950 187 565 277 1225 248 1815 -36 744
-200 1385 -520 2035 -258 526 -557 943 -975 1360 -410 411 -823 709 -1335 964
-594 296 -1203 466 -1865 520 -183 16 -522 21 -690 11z m-535 -3044 c149 -20
275 -49 428 -98 l132 -42 0 -256 0 -255 -97 47 c-126 61 -337 131 -483 160
-103 20 -143 23 -380 23 -291 0 -339 -7 -540 -77 -534 -188 -914 -689 -996
-1312 -23 -177 -15 -549 15 -699 59 -292 203 -584 386 -784 184 -202 486 -361
773 -408 130 -22 519 -17 651 9 203 38 366 92 538 176 l133 65 0 -235 0 -235
-88 -38 c-188 -81 -394 -140 -605 -174 -143 -23 -658 -26 -777 -5 -377 67
-702 225 -956 465 -306 289 -519 723 -579 1180 -19 151 -20 537 -1 697 87 717
521 1335 1142 1626 173 81 404 149 589 173 117 14 596 12 715 -3z m2570 -56
c0 -5 -52 -257 -115 -560 -63 -303 -115 -552 -115 -555 0 -3 157 -5 349 -5
l349 0 6 24 c3 13 55 257 116 542 61 286 113 529 117 542 5 22 7 22 179 22 96
0 174 -4 174 -9 0 -5 -52 -256 -115 -557 -63 -302 -115 -552 -115 -556 0 -5
164 -8 365 -8 309 0 365 -2 365 -14 0 -15 -46 -237 -56 -268 -5 -17 -31 -18
-370 -18 -283 0 -366 -3 -369 -12 -3 -7 -41 -186 -85 -398 -44 -212 -82 -395
-85 -407 l-5 -23 395 0 395 0 -7 -27 c-3 -16 -21 -84 -38 -153 l-31 -125 -387
-3 -386 -2 -10 -38 c-5 -20 -60 -264 -121 -542 -61 -278 -114 -513 -116 -522
-5 -16 -22 -18 -185 -18 -98 0 -179 3 -179 8 0 4 7 35 15 69 16 69 225 1033
225 1039 0 2 -157 4 -348 4 l-348 0 -48 -232 c-27 -128 -80 -379 -117 -558
-38 -178 -69 -325 -69 -327 0 -2 -79 -3 -175 -3 -145 0 -175 2 -175 14 0 13
132 646 205 978 14 65 25 120 25 123 0 3 -167 5 -370 5 l-371 0 7 38 c4 20 16
89 28 152 l22 115 374 5 375 5 77 380 c42 209 79 395 83 413 l6 32 -386 0
c-355 0 -385 1 -385 17 0 9 12 79 27 155 l27 138 391 2 390 3 107 510 c58 281
111 534 118 563 l11 52 180 0 c112 0 179 -4 179 -10z"/>
<path d="M6585 5698 c-7 -23 -175 -804 -175 -816 0 -9 86 -12 349 -12 324 0
350 1 355 18 3 9 42 188 86 397 45 209 84 390 87 403 l5 22 -351 0 c-272 0
-353 -3 -356 -12z"/>
</g>
</svg>
